<svg width="53" height="53" viewBox="0 0 53 53" fill="none" xmlns="http://www.w3.org/2000/svg">
<circle cx="26.1658" cy="26.3798" r="26.1658" fill="#4EAF4E"/>
<path d="M21.8767 35.6329L26.7387 28.2099C27.3367 27.2912 27.8264 26.4982 28.2077 25.8309C28.5977 25.1635 28.8837 24.5655 29.0657 24.0369C29.2564 23.4995 29.3517 22.9839 29.3517 22.4899C29.3517 21.6839 29.1264 21.0512 28.6757 20.5919C28.2251 20.1325 27.5967 19.9029 26.7907 19.9029C25.8981 19.9029 25.0877 20.1152 24.3597 20.5399C23.6404 20.9559 22.9861 21.4585 22.3967 22.0479L22.0197 18.9669C22.7304 18.3949 23.5191 17.9355 24.3857 17.5889C25.2524 17.2422 26.2317 17.0689 27.3237 17.0689C28.4244 17.0689 29.3431 17.2942 30.0797 17.7449C30.8251 18.1955 31.3797 18.7935 31.7437 19.5389C32.1164 20.2842 32.3027 21.1075 32.3027 22.0089C32.3027 22.7455 32.2031 23.4649 32.0037 24.1669C31.8044 24.8602 31.4881 25.6185 31.0547 26.4419C30.6214 27.2565 30.0537 28.1969 29.3517 29.2629L26.9857 32.8379H32.9787V35.6329H21.8767Z" fill="white"/>
</svg>
