<svg width="53" height="53" viewBox="0 0 53 53" fill="none" xmlns="http://www.w3.org/2000/svg">
<circle cx="26.1658" cy="26.3798" r="26.1658" fill="#181818"/>
<path d="M26.7127 36.0099C25.6554 36.0099 24.6847 35.8842 23.8007 35.6329C22.9167 35.3729 22.1671 35.0825 21.5517 34.7619L22.2927 32.1489C22.9254 32.4869 23.6101 32.7772 24.3467 33.0199C25.0834 33.2539 25.8721 33.3709 26.7127 33.3709C27.7354 33.3709 28.5414 33.1325 29.1307 32.6559C29.7287 32.1705 30.0277 31.4729 30.0277 30.5629C30.0277 29.6182 29.7244 28.8902 29.1177 28.3789C28.5111 27.8589 27.5837 27.5989 26.3357 27.5989H24.7497V24.8039H26.3227C27.3281 24.8039 28.1037 24.5699 28.6497 24.1019C29.2044 23.6339 29.4817 22.9882 29.4817 22.1649C29.4817 21.3849 29.2434 20.7825 28.7667 20.3579C28.2987 19.9332 27.6227 19.7209 26.7387 19.7209C26.0021 19.7209 25.3087 19.8465 24.6587 20.0979C24.0087 20.3405 23.3674 20.6525 22.7347 21.0339L22.2667 18.2389C22.8907 17.9095 23.6057 17.6365 24.4117 17.4199C25.2264 17.1945 26.1147 17.0819 27.0767 17.0819C28.2381 17.0819 29.2217 17.2855 30.0277 17.6929C30.8337 18.0915 31.4447 18.6462 31.8607 19.3569C32.2767 20.0675 32.4847 20.8779 32.4847 21.7879C32.4847 22.9665 32.1597 23.9632 31.5097 24.7779C30.8597 25.5839 29.9584 26.1255 28.8057 26.4029L28.7927 25.8049C30.1014 26.0302 31.1457 26.5415 31.9257 27.3389C32.7144 28.1362 33.1087 29.2022 33.1087 30.5369C33.1087 31.6982 32.8357 32.6862 32.2897 33.5009C31.7437 34.3155 30.9897 34.9395 30.0277 35.3729C29.0657 35.7975 27.9607 36.0099 26.7127 36.0099Z" fill="white"/>
</svg>
