<svg width="95" height="95" viewBox="0 0 95 95" fill="none" xmlns="http://www.w3.org/2000/svg">
<path id="Ellipse 10" d="M47.4126 2.65721C47.4126 1.35646 48.468 0.29586 49.7671 0.360852C59.5628 0.850916 68.9838 4.38927 76.6967 10.5111C85.0258 17.1221 90.873 26.3568 93.287 36.7131C95.7009 47.0694 94.5396 57.9378 89.992 67.5502C85.4444 77.1626 77.7781 84.9535 68.2402 89.6554C58.7023 94.3573 47.854 95.6935 37.4602 93.4467C27.0664 91.1999 17.7386 85.5023 10.9943 77.2807C4.25001 69.0592 0.486038 58.7975 0.314708 48.165C0.156054 38.3191 3.08675 28.6918 8.66354 20.6236C9.40313 19.5536 10.8871 19.3624 11.9188 20.1545C12.9505 20.9467 13.1387 22.4218 12.4051 23.4959C7.47263 30.7174 4.88299 39.3066 5.0245 48.0891C5.1787 57.6583 8.56628 66.8939 14.6362 74.2933C20.706 81.6927 29.101 86.8205 38.4555 88.8426C47.8099 90.8647 57.5733 89.6621 66.1574 85.4304C74.7416 81.1987 81.6413 74.187 85.7341 65.5358C89.8269 56.8846 90.8721 47.1031 88.6995 37.7824C86.527 28.4618 81.2645 20.1505 73.7683 14.2006C66.8884 8.73996 58.4985 5.56327 49.7668 5.0778C48.4681 5.00559 47.4126 3.95795 47.4126 2.65721Z" fill="#4EAF4E"/>
</svg>
