<svg width="94" height="90" viewBox="0 0 94 90" fill="none" xmlns="http://www.w3.org/2000/svg">
<g id="Icon">
<g id="Icon_2">
<g id="Icon_3">
<circle id="Ellipse 14" cx="62.5052" cy="35.3831" r="23.7884" fill="#282828"/>
<path id="Star 13" d="M32.078 9.46255C32.2276 9.00189 32.8793 9.00189 33.029 9.46255L34.1746 12.9883C34.2415 13.1943 34.4335 13.3338 34.6501 13.3338H38.3573C38.8416 13.3338 39.043 13.9536 38.6512 14.2383L35.652 16.4173C35.4768 16.5446 35.4034 16.7703 35.4704 16.9763L36.616 20.502C36.7656 20.9627 36.2384 21.3457 35.8465 21.061L32.8474 18.882C32.6721 18.7547 32.4348 18.7547 32.2596 18.882L29.2605 21.061C28.8686 21.3457 28.3414 20.9627 28.491 20.502L29.6366 16.9763C29.7035 16.7703 29.6302 16.5446 29.455 16.4173L26.4558 14.2383C26.064 13.9536 26.2654 13.3338 26.7497 13.3338H30.4569C30.6735 13.3338 30.8655 13.1943 30.9324 12.9883L32.078 9.46255Z" fill="#FFCC4A"/>
<path id="Polygon 1" d="M12.0808 71.5314C12.353 71.8035 12.2284 72.2683 11.8566 72.3679L1.54707 75.1303C1.17529 75.23 0.83508 74.8897 0.934699 74.518L3.69714 64.2084C3.79676 63.8366 4.26149 63.7121 4.53366 63.9842L12.0808 71.5314Z" fill="#4EAF4E"/>
<circle id="Ellipse 13" cx="87.5039" cy="27.9814" r="5.88667" fill="white"/>
</g>
<g id="Icon_4">
<path id="Vector" d="M73.8961 30.3096H26.387C25.1944 30.3096 24.2275 31.2764 24.2275 32.4691V64.8616C24.2275 66.0543 25.1944 67.0211 26.387 67.0211H73.8961C75.0887 67.0211 76.0556 66.0543 76.0556 64.8616V32.4691C76.0556 31.2764 75.0887 30.3096 73.8961 30.3096Z" fill="#181818" stroke="white" stroke-width="2" stroke-linecap="round" stroke-linejoin="round"/>
<path id="Vector_2" d="M73.8961 30.3096H26.387C25.1944 30.3096 24.2275 31.2764 24.2275 32.4691V64.8616C24.2275 66.0543 25.1944 67.0211 26.387 67.0211H73.8961C75.0887 67.0211 76.0556 66.0543 76.0556 64.8616V32.4691C76.0556 31.2764 75.0887 30.3096 73.8961 30.3096Z" fill="#181818" stroke="white" stroke-width="2" stroke-linecap="round" stroke-linejoin="round"/>
<path id="Vector_3" d="M73.8961 56.7275H26.387C25.1944 56.7275 24.2275 56.9986 24.2275 57.3331V66.4157C24.2275 66.7501 25.1944 67.0212 26.387 67.0212H73.8961C75.0887 67.0212 76.0556 66.7501 76.0556 66.4157V57.3331C76.0556 56.9986 75.0887 56.7275 73.8961 56.7275Z" fill="#4EAF4E" stroke="white" stroke-width="2" stroke-linecap="round" stroke-linejoin="round"/>
<path id="Vector_4" d="M58.7793 67.0205L67.4173 77.818" stroke="white" stroke-width="2" stroke-linecap="round" stroke-linejoin="round"/>
<path id="Vector_5" d="M41.5032 67.0205L32.8652 77.818" stroke="white" stroke-width="2" stroke-linecap="round" stroke-linejoin="round"/>
<path id="Vector_6" d="M41.5039 49.7451V56.2236" stroke="white" stroke-width="2" stroke-linecap="round" stroke-linejoin="round"/>
<path id="Vector_7" d="M50.1416 45.4268V56.2243" stroke="white" stroke-width="2" stroke-linecap="round" stroke-linejoin="round"/>
<path id="Vector_8" d="M58.7793 41.1064V56.223" stroke="white" stroke-width="2" stroke-linecap="round" stroke-linejoin="round"/>
<path id="Vector_9" d="M50.1416 30.3096V23.8311" stroke="white" stroke-width="2" stroke-linecap="round" stroke-linejoin="round"/>
</g>
</g>
</g>
</svg>
