<svg width="102" height="90" viewBox="0 0 102 90" fill="none" xmlns="http://www.w3.org/2000/svg">
<g id="Icon">
<g id="Icon_2">
<circle id="Ellipse 14" cx="19.8669" cy="68.9587" r="15.5573" fill="#DADADA"/>
<path id="Star 13" d="M74.7513 20.4625C74.9009 20.0019 75.5526 20.0019 75.7023 20.4625L76.6678 23.4339C76.7347 23.6399 76.9267 23.7794 77.1433 23.7794H80.2675C80.7519 23.7794 80.9533 24.3992 80.5614 24.6839L78.0339 26.5203C77.8586 26.6476 77.7853 26.8733 77.8522 27.0793L78.8177 30.0506C78.9673 30.5113 78.4401 30.8943 78.0483 30.6096L75.5207 28.7733C75.3454 28.6459 75.1081 28.6459 74.9329 28.7733L72.4053 30.6096C72.0135 30.8943 71.4862 30.5113 71.6359 30.0506L72.6013 27.0793C72.6683 26.8733 72.595 26.6476 72.4197 26.5203L69.8921 24.6839C69.5003 24.3992 69.7017 23.7794 70.186 23.7794H73.3103C73.5269 23.7794 73.7189 23.6399 73.7858 23.4339L74.7513 20.4625Z" fill="#141414"/>
<path id="Polygon 1" d="M9.11564 73.5329C9.38781 73.8051 9.26329 74.2698 8.8915 74.3694L0.846221 76.5252C0.474436 76.6248 0.134229 76.2846 0.233849 75.9128L2.38957 67.8675C2.48919 67.4957 2.95393 67.3712 3.22609 67.6434L9.11564 73.5329Z" fill="#4EAF4E"/>
<circle id="Ellipse 13" cx="94.8202" cy="40.4033" r="7.05852" fill="#DADADA"/>
<g id="Icon_3">
<path id="Rectangle 31" d="M19.6855 47.376H76.1782V73.4465C76.1782 74.551 75.2828 75.4465 74.1782 75.4465H22.6855C21.0287 75.4465 19.6855 74.1033 19.6855 72.4465V47.376Z" fill="#FFCC4A"/>
<path id="Rectangle 32" d="M61.7832 46.9365L19.6794 46.9365L19.6794 39.4767C19.6794 37.8199 21.0225 36.4767 22.6794 36.4767L59.7832 36.4767C60.8878 36.4767 61.7832 37.3722 61.7832 38.4767L61.7832 46.9365Z" fill="#4EAF4E" stroke="#141414" stroke-width="2"/>
<path id="Vector" d="M73.5315 36.21H21.5863C20.3909 36.21 19.4219 37.179 19.4219 38.3743V73.0045C19.4219 74.1998 20.3909 75.1689 21.5863 75.1689H73.5315C74.7268 75.1689 75.6959 74.1998 75.6959 73.0045V38.3743C75.6959 37.179 74.7268 36.21 73.5315 36.21Z" stroke="#141414" stroke-width="2" stroke-linecap="round" stroke-linejoin="round"/>
<path id="Vector_2" d="M58.3809 66.5107H67.0384" stroke="#141414" stroke-width="2" stroke-linecap="round" stroke-linejoin="round"/>
<path id="Vector_3" d="M45.3945 66.5107H49.7233" stroke="#141414" stroke-width="2" stroke-linecap="round" stroke-linejoin="round"/>
<path id="Vector_4" d="M19.4219 47.2744H75.6959" stroke="#141414" stroke-width="2" stroke-linecap="round" stroke-linejoin="round"/>
</g>
</g>
</g>
</svg>
