<svg width="92" height="95" viewBox="0 0 92 95" fill="none" xmlns="http://www.w3.org/2000/svg">
<g id="Icon">
<g id="Icon_2">
<circle id="Ellipse 14" cx="20.8965" cy="73.3857" r="20.8965" fill="#DADADA"/>
<path id="Star 13" d="M56.2999 8.46255C56.4495 8.00189 57.1012 8.00189 57.2509 8.46255L58.3739 11.9189C58.4409 12.1249 58.6329 12.2644 58.8495 12.2644L62.4837 12.2644C62.9681 12.2644 63.1694 12.8842 62.7776 13.1689L59.8374 15.305C59.6622 15.4324 59.5889 15.658 59.6558 15.8641L60.7788 19.3204C60.9285 19.7811 60.4013 20.1641 60.0094 19.8794L57.0693 17.7433C56.894 17.616 56.6567 17.616 56.4815 17.7433L53.5413 19.8794C53.1495 20.1641 52.6222 19.7811 52.7719 19.3204L53.895 15.8641C53.9619 15.658 53.8886 15.4324 53.7133 15.305L50.7732 13.1689C50.3813 12.8842 50.5827 12.2644 51.0671 12.2644L54.7013 12.2644C54.9179 12.2644 55.1099 12.1249 55.1768 11.9189L56.2999 8.46255Z" fill="#141414"/>
<path id="Polygon 1" d="M29.1967 75.6282C29.4689 75.9004 29.3443 76.3651 28.9726 76.4648L18.9451 79.1516C18.5733 79.2512 18.2331 78.911 18.3328 78.5392L21.0196 68.5118C21.1192 68.14 21.5839 68.0155 21.8561 68.2877L29.1967 75.6282Z" fill="#4EAF4E"/>
<circle id="Ellipse 13" cx="72.9807" cy="30.4309" r="6.02949" fill="#DADADA"/>
<g id="Icon_3">
<g id="Vector">
<path d="M63.4285 41.1963C74.6372 42.2404 83.082 46.6931 83.082 52.0364C83.082 58.1474 72.0883 63.0915 58.5151 63.0915C52.4962 63.0915 46.9687 62.1089 42.7002 60.512" fill="#4EAF4E"/>
<path d="M63.4285 41.1963C74.6372 42.2404 83.082 46.6931 83.082 52.0364C83.082 58.1475 72.0883 63.0915 58.5151 63.0915C52.4962 63.0915 46.9687 62.1089 42.7002 60.512" stroke="#141414" stroke-width="2" stroke-linecap="round" stroke-linejoin="round"/>
</g>
<g id="Vector_2">
<path d="M14.2939 37.2959V49.5793C14.2939 55.6904 25.2876 60.6345 38.8608 60.6345C52.4341 60.6345 63.4277 55.6904 63.4277 49.5793V37.2959" fill="white"/>
<path d="M14.2939 37.2959V49.5793C14.2939 55.6904 25.2876 60.6345 38.8608 60.6345C52.4341 60.6345 63.4277 55.6904 63.4277 49.5793V37.2959" stroke="#141414" stroke-width="2" stroke-linecap="round" stroke-linejoin="round"/>
</g>
<path id="Vector_3" d="M38.8608 48.3514C52.4288 48.3514 63.4277 43.4019 63.4277 37.2963C63.4277 31.1907 52.4288 26.2412 38.8608 26.2412C25.2929 26.2412 14.2939 31.1907 14.2939 37.2963C14.2939 43.4019 25.2929 48.3514 38.8608 48.3514Z" fill="#FFCC4A" stroke="#141414" stroke-width="2" stroke-linecap="round" stroke-linejoin="round"/>
<path id="Vector_4" d="M29.0342 47.4307V59.7141" stroke="#141414" stroke-width="2" stroke-linecap="round" stroke-linejoin="round"/>
<path id="Vector_5" d="M33.9482 60.4196V64.3196C33.9482 70.4306 44.9419 75.3747 58.5151 75.3747C72.0884 75.3747 83.082 70.4306 83.082 64.3196V52.0361" stroke="#141414" stroke-width="2" stroke-linecap="round" stroke-linejoin="round"/>
<path id="Vector_6" d="M68.3418 62.1709V74.4543" stroke="#141414" stroke-width="2" stroke-linecap="round" stroke-linejoin="round"/>
<path id="Vector_7" d="M48.6875 47.4307V74.4543" stroke="#141414" stroke-width="2" stroke-linecap="round" stroke-linejoin="round"/>
</g>
</g>
</g>
</svg>
